<svg width="128" height="128" viewBox="0 0 128 128" fill="none" xmlns="http://www.w3.org/2000/svg">
<rect width="128" height="128" fill="#FCF299"/>
<circle cx="64" cy="64" r="49" fill="white" stroke="black" stroke-width="2"/>
<path d="M96.7017 51.6004H34.0351C32.5351 51.6004 31.3018 52.8337 31.3018 54.3337L28.5685 57.067V62.5337H31.3018V65.267L29.3685 67.2004C28.8685 67.7004 28.5685 68.4004 28.5685 69.1337V78.9004C28.5685 80.4004 29.8018 81.6337 31.3018 81.6337H39.4685C39.4685 84.6337 41.9018 87.1004 44.935 87.1004C47.9684 87.1004 50.4017 84.667 50.4017 81.6337H77.6684C77.6684 84.6337 80.1017 87.1004 83.135 87.1004C86.1684 87.1004 88.6017 84.667 88.6017 81.6337H96.7684C98.2684 81.6337 99.5017 80.4004 99.5017 78.9004V54.367C99.5017 52.867 98.2684 51.6337 96.7684 51.6337L96.7017 51.6004ZM88.5351 54.3337V65.2337H77.635V54.3337H88.5351ZM74.9017 54.3337V65.2337H53.1017V54.3337H74.9017ZM34.0018 54.3337H50.3684V65.2337H46.035C45.3017 65.2337 44.635 65.5337 44.1017 66.0337L39.4351 70.7004H33.9685V54.3337H34.0018Z" fill="black"/>
</svg>